<?xml version="1.0" encoding="UTF-8"?>
<svg version="1.1" xmlns="http://www.w3.org/2000/svg" width="954" height="175">
<path d="M0 0 C314.82 0 629.64 0 954 0 C954 57.75 954 115.5 954 175 C639.18 175 324.36 175 0 175 C0 117.25 0 59.5 0 0 Z " fill="#FEFEFE" transform="translate(0,0)"/>
<path d="M0 0 C1.13530655 -0.00637985 2.2706131 -0.0127597 3.44032288 -0.01933289 C4.67874435 -0.02044571 5.91716583 -0.02155853 7.19311523 -0.02270508 C8.4600975 -0.02603348 9.72707977 -0.02936188 11.03245544 -0.03279114 C13.72349537 -0.03786804 16.41443444 -0.04063029 19.10546875 -0.04003906 C22.53612799 -0.03993804 25.96657746 -0.05352311 29.39718723 -0.07081127 C32.6833218 -0.08469139 35.96945536 -0.08402284 39.25561523 -0.08520508 C40.4798671 -0.09239059 41.70411896 -0.09957611 42.96546936 -0.10697937 C54.69122792 -0.0758089 65.65258462 2.16602114 74.87280273 10.00073242 C80.83093196 16.42013617 83.87226193 22.862763 84.18920898 31.64526367 C83.92592884 38.70446255 82.64572117 44.1041185 77.64233398 49.25073242 C75.70983271 50.96736919 73.75163286 52.588434 71.68920898 54.14526367 C72.25897461 54.41338867 72.82874023 54.68151367 73.41577148 54.95776367 C82.55792045 59.73304423 88.09035622 66.50474677 91.82202148 76.03979492 C94.34209028 85.0643656 93.28471507 94.06024948 89.29467773 102.45385742 C83.60003528 112.00035049 74.2987134 117.37756687 63.68920898 120.14526367 C56.33228169 121.34628355 49.04057531 121.28975385 41.59936523 121.27807617 C40.24555952 121.27875079 38.89175392 121.27972213 37.53794861 121.28097534 C34.71815829 121.28244137 31.89839987 121.28033081 29.07861328 121.27563477 C25.45807685 121.26989959 21.83761394 121.27324711 18.21708012 121.27920723 C15.42994119 121.28280984 12.64281991 121.28167632 9.85568047 121.27907944 C7.86969327 121.27808634 5.88370539 121.28112741 3.89772034 121.28421021 C2.70235153 121.28105804 1.50698273 121.27790588 0.27539062 121.2746582 C-0.78191757 121.27386261 -1.83922577 121.27306702 -2.92857361 121.27224731 C-5.31079102 121.14526367 -5.31079102 121.14526367 -6.31079102 120.14526367 C-6.40880754 118.60405527 -6.43710948 117.05835999 -6.43777466 115.51403809 C-6.44059448 114.51282425 -6.44341431 113.51161041 -6.44631958 112.48005676 C-6.44429535 111.3724852 -6.44227112 110.26491364 -6.44018555 109.1237793 C-6.44193787 107.96456467 -6.44369019 106.80535004 -6.44549561 105.61100769 C-6.44991696 101.75782804 -6.44697513 97.90469384 -6.44360352 94.05151367 C-6.44427647 91.38732851 -6.44524471 88.72314477 -6.44650269 86.05895996 C-6.44832423 80.46679181 -6.44591847 74.87463685 -6.44116211 69.2824707 C-6.43571951 62.80853865 -6.43748218 56.33463809 -6.44298851 49.86070681 C-6.44752007 44.31166962 -6.44816998 38.76264194 -6.44554985 33.2136035 C-6.44398731 29.89531059 -6.44418276 26.57703581 -6.44708633 23.25874329 C-6.44961118 19.56138953 -6.44577462 15.8640972 -6.44018555 12.16674805 C-6.44220978 11.05917648 -6.44423401 9.95160492 -6.44631958 8.81047058 C-6.44349976 7.80925674 -6.44067993 6.80804291 -6.43777466 5.77648926 C-6.43739763 4.90116295 -6.43702061 4.02583664 -6.43663216 3.12398529 C-6.17848649 -0.93508792 -3.455002 0.01311712 0 0 Z " fill="#531463" transform="translate(840.310791015625,23.854736328125)"/>
<path d="M0 0 C1.77793945 -0.0937793 1.77793945 -0.0937793 3.59179688 -0.18945312 C12.14125416 -0.34768761 12.14125416 -0.34768761 15.30493164 2.11083984 C16.88041081 4.18201794 18.09977217 6.26215313 19.3125 8.5625 C20.14685178 9.83520451 20.99173568 11.1010747 21.84765625 12.359375 C22.69298562 13.6752367 23.53532023 14.993026 24.375 16.3125 C25.33695903 17.81137801 26.29921093 19.31006809 27.26171875 20.80859375 C27.75978027 21.5857373 28.2578418 22.36288086 28.77099609 23.16357422 C31.39344643 27.24469507 34.04135687 31.309218 36.6875 35.375 C37.77344924 37.04556528 38.85938662 38.71613828 39.9453125 40.38671875 C42.29187278 43.99505644 44.64135696 47.60147434 46.9921875 51.20703125 C47.5898291 52.12444092 48.1874707 53.04185059 48.80322266 53.98706055 C49.95566445 55.75602512 51.10895339 57.52443815 52.26318359 59.29223633 C53.03782959 60.48175903 53.03782959 60.48175903 53.828125 61.6953125 C54.28477539 62.39543457 54.74142578 63.09555664 55.21191406 63.81689453 C56.3125 65.5625 56.3125 65.5625 57.3125 67.5625 C57.32280746 66.73786758 57.33311493 65.91323517 57.34373474 65.06361389 C57.4415388 57.30844316 57.54402834 49.55335547 57.65183926 41.79831791 C57.70710473 37.81096784 57.76053037 33.82361048 57.80981445 29.83618164 C57.85740476 25.99118399 57.90974536 22.14627818 57.96544075 18.30138969 C57.98588857 16.83133658 58.00459756 15.36125826 58.02157402 13.89116096 C58.04556464 11.83888724 58.0756259 9.78678853 58.10717773 7.73461914 C58.12272202 6.56435684 58.1382663 5.39409454 58.15428162 4.18836975 C58.3125 1.5625 58.3125 1.5625 59.3125 0.5625 C61.38512076 0.47482888 63.46070294 0.45554127 65.53515625 0.46484375 C66.79521484 0.46806641 68.05527344 0.47128906 69.35351562 0.47460938 C70.69401109 0.48296597 72.03450588 0.49143093 73.375 0.5 C74.71939942 0.5050134 76.0638006 0.50957658 77.40820312 0.51367188 C80.70967941 0.52550512 84.01106803 0.54199029 87.3125 0.5625 C87.33582938 16.19128361 87.35347937 31.82006253 87.36431217 47.44885921 C87.36947505 54.70508849 87.37651758 61.96130696 87.38793945 69.2175293 C87.39788656 75.53983856 87.40435349 81.86214001 87.40658849 88.18445688 C87.40789556 91.5340675 87.41098113 94.88365574 87.41823006 98.2332592 C87.4254362 101.96663645 87.42649112 105.69996658 87.42602539 109.43334961 C87.42962067 110.55184296 87.43321594 111.6703363 87.43692017 112.82272339 C87.4355455 113.83379654 87.43417084 114.84486969 87.43275452 115.88658142 C87.43367631 116.77058089 87.4345981 117.65458036 87.43554783 118.5653677 C87.3125 120.5625 87.3125 120.5625 86.3125 121.5625 C77.88521486 123.34508999 68.60382892 124.20820961 60.3125 121.5625 C53.89141439 116.56062668 50.50098956 108.83243803 46.93310547 101.69238281 C44.48228092 96.95909406 41.53567538 92.60373932 38.5625 88.1875 C37.50209497 86.56192251 36.44475132 84.9343435 35.390625 83.3046875 C34.88080078 82.51932617 34.37097656 81.73396484 33.84570312 80.92480469 C33.33974609 80.14524414 32.83378906 79.36568359 32.3125 78.5625 C31.80138672 77.77520508 31.29027344 76.98791016 30.76367188 76.17675781 C29.27909659 73.88922258 27.79558922 71.60099892 26.3125 69.3125 C25.87969727 68.64557129 25.44689453 67.97864258 25.00097656 67.29150391 C22.86059691 63.98569505 20.74485966 60.66644417 18.66015625 57.32519531 C17.99705444 56.26283661 17.99705444 56.26283661 17.32055664 55.17901611 C16.8215686 54.37884064 16.8215686 54.37884064 16.3125 53.5625 C16.2970388 54.81824074 16.2970388 54.81824074 16.28126526 56.09934998 C16.18346218 63.97224736 16.08097275 71.84506658 15.97316074 79.71783352 C15.91789471 83.76571817 15.86446898 87.81361 15.81518555 91.86157227 C15.76759607 95.76492362 15.7152555 99.66818449 15.65955925 103.5714283 C15.63911106 105.06381045 15.62040213 106.55621743 15.60342598 108.04864311 C15.5794362 110.13204849 15.54937481 112.2152814 15.51782227 114.29858398 C15.50227798 115.48661118 15.4867337 116.67463837 15.47071838 117.89866638 C15.3125 120.5625 15.3125 120.5625 14.3125 121.5625 C12.32492972 121.66233058 10.3338248 121.69330753 8.34375 121.6953125 C7.13332031 121.69660156 5.92289063 121.69789063 4.67578125 121.69921875 C3.40089844 121.69535156 2.12601563 121.69148438 0.8125 121.6875 C-0.46238281 121.69136719 -1.73726562 121.69523437 -3.05078125 121.69921875 C-4.26121094 121.69792969 -5.47164062 121.69664062 -6.71875 121.6953125 C-7.83830078 121.69418457 -8.95785156 121.69305664 -10.11132812 121.69189453 C-12.6875 121.5625 -12.6875 121.5625 -13.6875 120.5625 C-13.78551653 119.0212916 -13.81381846 117.47559632 -13.81448364 115.93127441 C-13.81730347 114.93006058 -13.82012329 113.92884674 -13.82302856 112.89729309 C-13.82100433 111.78972153 -13.8189801 110.68214996 -13.81689453 109.54101562 C-13.81864685 108.38180099 -13.82039917 107.22258636 -13.82220459 106.02824402 C-13.82662595 102.17506437 -13.82368411 98.32193017 -13.8203125 94.46875 C-13.82098546 91.80456484 -13.8219537 89.14038109 -13.82321167 86.47619629 C-13.82503322 80.88402814 -13.82262745 75.29187318 -13.81787109 69.69970703 C-13.8124285 63.22577498 -13.81419117 56.75187442 -13.8196975 50.27794313 C-13.82422906 44.72890595 -13.82487897 39.17987826 -13.82225883 33.63083982 C-13.82069629 30.31254692 -13.82089174 26.99427214 -13.82379532 23.67597961 C-13.82632017 19.97862586 -13.82248361 16.28133353 -13.81689453 12.58398438 C-13.81891876 11.47641281 -13.82094299 10.36884125 -13.82302856 9.22770691 C-13.82020874 8.22649307 -13.81738892 7.22527924 -13.81448364 6.19372559 C-13.81410662 5.31839928 -13.81372959 4.44307297 -13.81334114 3.54122162 C-13.46964086 -1.86310938 -4.0468412 0.0931055 0 0 Z " fill="#531363" transform="translate(160.6875,23.4375)"/>
<path d="M0 0 C1.37940339 -0.01656063 2.75872091 -0.0438533 4.13769531 -0.08203125 C6.12382841 -0.13675221 8.1108493 -0.15552982 10.09765625 -0.17333984 C11.29052246 -0.19315918 12.48338867 -0.21297852 13.71240234 -0.23339844 C16.69921875 0.35009766 16.69921875 0.35009766 18.36669922 2.25439453 C20.23637888 6.59802555 21.96697745 10.97467766 23.62109375 15.40478516 C24.18654152 16.90089577 24.18654152 16.90089577 24.76341248 18.42723083 C25.99628433 21.69159351 27.2226515 24.95836149 28.44921875 28.22509766 C29.73456548 31.63194779 31.02171527 35.03811303 32.30900574 38.44422913 C33.17819591 40.7442719 34.04685571 43.04451517 34.91499329 45.34495544 C38.55494065 54.98632335 42.23937744 64.6100535 45.94735718 74.22543335 C46.87769575 76.63918758 47.80598325 79.0537208 48.73364258 81.46850586 C51.26633521 88.05835354 53.80814329 94.64351596 56.40234375 101.20947266 C56.98205933 102.69000122 56.98205933 102.69000122 57.57348633 104.20043945 C58.24712516 105.91879853 58.92833817 107.63422356 59.61987305 109.34545898 C59.90258057 110.07015381 60.18528809 110.79484863 60.4765625 111.54150391 C60.71624756 112.14164307 60.95593262 112.74178223 61.20288086 113.36010742 C61.69921875 115.35009766 61.69921875 115.35009766 61.69921875 121.35009766 C51.46921875 121.35009766 41.23921875 121.35009766 30.69921875 121.35009766 C29.54421875 118.58634766 28.38921875 115.82259766 27.19921875 112.97509766 C26.83376953 112.10578613 26.46832031 111.23647461 26.09179688 110.34082031 C25.66543945 109.31287354 25.66543945 109.31287354 25.23046875 108.26416016 C24.93720703 107.56242676 24.64394531 106.86069336 24.34179688 106.13769531 C23.69921875 104.35009766 23.69921875 104.35009766 23.69921875 102.35009766 C8.84921875 102.35009766 -6.00078125 102.35009766 -21.30078125 102.35009766 C-21.63078125 104.00009766 -21.96078125 105.65009766 -22.30078125 107.35009766 C-23.09484572 109.61425447 -23.93065274 111.86406974 -24.80078125 114.10009766 C-25.4659375 115.82486328 -25.4659375 115.82486328 -26.14453125 117.58447266 C-27.30078125 120.35009766 -27.30078125 120.35009766 -28.30078125 121.35009766 C-30.44636952 121.43785371 -32.59482546 121.45704985 -34.7421875 121.44775391 C-36.04736328 121.44453125 -37.35253906 121.44130859 -38.69726562 121.43798828 C-40.08593815 121.42963167 -41.47461002 121.42116671 -42.86328125 121.41259766 C-44.25585781 121.40758432 -45.64843606 121.40302112 -47.04101562 121.39892578 C-50.46097995 121.38709199 -53.88085969 121.37060646 -57.30078125 121.35009766 C-58.27695425 117.64548466 -58.3335007 115.49236257 -56.92407227 111.93505859 C-56.42993332 110.6603067 -56.42993332 110.6603067 -55.92581177 109.35980225 C-55.55584076 108.44394348 -55.18586975 107.52808472 -54.8046875 106.58447266 C-54.42488739 105.61495667 -54.04508728 104.64544067 -53.65377808 103.64654541 C-52.40215272 100.45957298 -51.13278738 97.27998476 -49.86328125 94.10009766 C-48.99038189 91.88704309 -48.11873069 89.67349582 -47.24829102 87.45947266 C-45.4700629 82.94078535 -43.68536292 78.42473854 -41.89550781 73.91064453 C-39.51620025 67.90422845 -37.16336559 61.88787834 -34.82421875 55.86572266 C-34.47776306 54.97391296 -34.13130737 54.08210327 -33.77435303 53.16326904 C-33.09441649 51.41293298 -32.41450468 49.66258732 -31.73461914 47.91223145 C-26.98855578 35.70748704 -22.20653159 23.5166135 -17.36328125 11.35009766 C-16.95585693 10.32271484 -16.54843262 9.29533203 -16.12866211 8.23681641 C-15.58157593 6.86976562 -15.58157593 6.86976562 -15.0234375 5.47509766 C-14.71156494 4.69392578 -14.39969238 3.91275391 -14.07836914 3.10791016 C-11.89920161 -1.81830843 -4.6643452 0.04109066 0 0 Z " fill="#531363" transform="translate(326.30078125,23.64990234375)"/>
<path d="M0 0 C1.37940339 -0.01656063 2.75872091 -0.0438533 4.13769531 -0.08203125 C6.12382841 -0.13675221 8.1108493 -0.15552982 10.09765625 -0.17333984 C11.29052246 -0.19315918 12.48338867 -0.21297852 13.71240234 -0.23339844 C16.69921875 0.35009766 16.69921875 0.35009766 18.43457031 2.43994141 C19.8725642 5.74899298 21.26301666 9.06030599 22.53515625 12.43603516 C22.80684128 13.14526627 23.07852631 13.85449738 23.35844421 14.58522034 C24.26820419 16.96348714 25.17118639 19.34426906 26.07421875 21.72509766 C26.72149697 23.42130553 27.36921416 25.11734595 28.01733398 26.81323242 C29.44983853 30.56396604 30.87940301 34.31580423 32.30712891 38.06835938 C34.91341149 44.91643939 37.53080619 51.76025551 40.1484375 58.60400391 C49.95357227 84.24774478 49.95357227 84.24774478 53.47705078 93.52539062 C54.84788872 97.13189783 56.23662464 100.73003025 57.65185547 104.31933594 C57.93822372 105.05503311 58.22459198 105.79073029 58.51963806 106.54872131 C59.25194295 108.42850344 59.9935393 110.30465909 60.73608398 112.18041992 C61.69921875 115.35009766 61.69921875 115.35009766 61.69921875 121.35009766 C51.79921875 121.35009766 41.89921875 121.35009766 31.69921875 121.35009766 C25.69921875 109.35009766 25.69921875 109.35009766 23.69921875 102.35009766 C9.17921875 102.68009766 -5.34078125 103.01009766 -20.30078125 103.35009766 C-22.61078125 108.96009766 -24.92078125 114.57009766 -27.30078125 120.35009766 C-28.30078125 121.35009766 -28.30078125 121.35009766 -31.07641602 121.46362305 C-32.28612061 121.45838623 -33.4958252 121.45314941 -34.7421875 121.44775391 C-36.04736328 121.44453125 -37.35253906 121.44130859 -38.69726562 121.43798828 C-40.08593815 121.42963167 -41.47461002 121.42116671 -42.86328125 121.41259766 C-44.25585781 121.40758432 -45.64843606 121.40302112 -47.04101562 121.39892578 C-50.46097995 121.38709199 -53.88085969 121.37060646 -57.30078125 121.35009766 C-59.16469732 116.14938078 -57.11098173 112.35072806 -55.12890625 107.52197266 C-54.77945953 106.64082794 -54.43001282 105.75968323 -54.06997681 104.85183716 C-52.90844448 101.92984401 -51.72945809 99.01521226 -50.55078125 96.10009766 C-49.73438782 94.05396417 -48.91947022 92.00724127 -48.10595703 89.95996094 C-46.82898417 86.74688736 -45.55103232 83.53423916 -44.26846313 80.32339478 C-39.4780633 68.32652211 -34.82721946 56.27635984 -30.17578125 44.22509766 C-25.76173387 32.79455128 -21.33484422 21.36959338 -16.80859375 9.98291016 C-16.46956024 9.12535126 -16.13052673 8.26779236 -15.78121948 7.38424683 C-12.23882793 -1.48563433 -9.17583064 0.0808347 0 0 Z " fill="#531363" transform="translate(67.30078125,23.64990234375)"/>
<path d="M0 0 C1.20446777 0.01047363 2.40893555 0.02094727 3.64990234 0.03173828 C5.60283203 0.04140625 5.60283203 0.04140625 7.59521484 0.05126953 C8.9754258 0.06798149 10.35563413 0.08491139 11.73583984 0.10205078 C13.12385436 0.11208072 14.51187574 0.12120655 15.89990234 0.12939453 C19.3037201 0.15303215 22.70719491 0.18598211 26.11083984 0.22705078 C29.48230246 6.64150896 32.11248061 13.18895343 34.64599609 19.97314453 C35.07769608 21.11762054 35.50939606 22.26209656 35.95417786 23.44125366 C36.88213486 25.90220188 37.80865629 28.3636303 38.73260498 30.82608032 C41.17694901 37.3405666 43.63330995 43.85051898 46.09130859 50.35986328 C46.34056847 51.02038256 46.58982834 51.68090183 46.84664154 52.36143684 C50.4325038 61.85918933 54.08036103 71.33019065 57.78662109 80.78173828 C58.2302449 81.91492996 58.67386871 83.04812164 59.13093567 84.21565247 C61.23349561 89.58301608 63.34543251 94.94642481 65.47045898 100.30493164 C66.22330795 102.22285377 66.9758489 104.14089684 67.72802734 106.05908203 C68.07380325 106.92101166 68.41957916 107.78294128 68.77583313 108.67098999 C71.67734833 116.11254305 71.67734833 116.11254305 71.11083984 120.22705078 C70.11083984 121.22705078 70.11083984 121.22705078 67.2434082 121.34057617 C65.99180908 121.33533936 64.74020996 121.33010254 63.45068359 121.32470703 C62.45398399 121.32258461 62.45398399 121.32258461 61.43714905 121.32041931 C59.30750085 121.31480596 57.17795645 121.30225132 55.04833984 121.28955078 C53.60758615 121.2845375 52.16683081 121.27997429 50.72607422 121.27587891 C47.18762882 121.26483223 43.64924446 121.2475587 40.11083984 121.22705078 C38.93989979 118.43710688 37.77393057 115.64526481 36.61083984 112.85205078 C36.27697266 112.05798828 35.94310547 111.26392578 35.59912109 110.44580078 C35.28330078 109.68525391 34.96748047 108.92470703 34.64208984 108.14111328 C34.34882812 107.43937988 34.05556641 106.73764648 33.75341797 106.01464844 C33.11083984 104.22705078 33.11083984 104.22705078 33.11083984 102.22705078 C18.26083984 102.22705078 3.41083984 102.22705078 -11.88916016 102.22705078 C-12.87916016 105.52705078 -13.86916016 108.82705078 -14.88916016 112.22705078 C-15.57386066 113.95368683 -16.28969009 115.66956306 -17.07666016 117.35205078 C-17.42083984 118.09712891 -17.76501953 118.84220703 -18.11962891 119.60986328 C-18.37357422 120.14353516 -18.62751953 120.67720703 -18.88916016 121.22705078 C-23.00088575 121.25170824 -27.11258293 121.26989037 -31.22436523 121.28198242 C-32.62411244 121.28702158 -34.02385436 121.29385295 -35.42358398 121.30249023 C-37.43161792 121.31457398 -39.43968973 121.31974885 -41.44775391 121.32470703 C-42.6574585 121.32994385 -43.86716309 121.33518066 -45.11352539 121.34057617 C-47.88916016 121.22705078 -47.88916016 121.22705078 -48.88916016 120.22705078 C-48.45582331 114.22082358 -46.51586023 109.1094408 -44.30322266 103.54736328 C-43.93422852 102.60200714 -43.56523437 101.656651 -43.18505859 100.68264771 C-41.96828398 97.56971372 -40.74118524 94.46095691 -39.51416016 91.35205078 C-38.66229855 89.17755439 -37.81123634 87.00274468 -36.9609375 84.82763672 C-35.18228406 80.27954551 -33.40013966 75.73284453 -31.61572266 71.18701172 C-27.62978417 61.02365264 -23.68965906 50.84254169 -19.7477417 40.66204834 C-18.54015879 37.54417694 -17.33135829 34.42678074 -16.12207031 31.30957031 C-15.74368011 30.33388092 -15.36528992 29.35819153 -14.97543335 28.35293579 C-14.24882987 26.48012795 -13.52165842 24.60754034 -12.79385376 22.73519897 C-11.28135785 18.84034523 -9.77642609 14.94373408 -8.31396484 11.02978516 C-7.65122559 9.26344727 -7.65122559 9.26344727 -6.97509766 7.46142578 C-6.61206543 6.47883789 -6.2490332 5.49625 -5.875 4.48388672 C-4.42392288 1.16200536 -3.67396571 0.28872639 0 0 Z " fill="#531363" transform="translate(539.88916015625,23.77294921875)"/>
<path d="M0 0 C1.226548 0.00303635 1.226548 0.00303635 2.47787476 0.00613403 C3.76315567 0.00350555 3.76315567 0.00350555 5.07440186 0.00082397 C7.9211527 -0.00359561 10.76784197 -0.00065618 13.61459351 0.00271606 C15.58375053 0.00204306 17.55290747 0.00107306 19.52206421 -0.00018311 C23.65480335 -0.00166022 27.78752093 0.00049492 31.92025757 0.00515747 C37.23033871 0.01085476 42.54036932 0.00757583 47.85044861 0.00158501 C51.91834904 -0.00202023 55.9862374 -0.00088219 60.05413818 0.0017128 C62.01265468 0.00238217 63.97117226 0.00155329 65.9296875 -0.00076675 C68.6619255 -0.00329267 71.39408047 0.00054645 74.12631226 0.00613403 C74.94401093 0.0041098 75.76170959 0.00208557 76.60418701 0 C82.18783105 0.02126611 82.18783105 0.02126611 83.30209351 1.13552856 C83.40168971 2.97711879 83.43289761 4.82249823 83.43490601 6.66677856 C83.43619507 7.78697388 83.43748413 8.90716919 83.43881226 10.06130981 C83.43494507 11.240802 83.43107788 12.42029419 83.42709351 13.63552856 C83.43096069 14.81502075 83.43482788 15.99451294 83.43881226 17.20974731 C83.43752319 18.32994263 83.43623413 19.45013794 83.43490601 20.60427856 C83.43377808 21.64004028 83.43265015 22.675802 83.43148804 23.74295044 C83.30209351 26.13552856 83.30209351 26.13552856 82.30209351 27.13552856 C80.46091321 27.22934159 78.61611709 27.2529681 76.77255249 27.24905396 C75.59140366 27.24897842 74.41025482 27.24890289 73.1933136 27.24882507 C71.90792191 27.24366379 70.62253021 27.2385025 69.29818726 27.23318481 C67.3359597 27.23106239 67.3359597 27.23106239 65.33409119 27.22889709 C61.85046492 27.22507266 58.36688011 27.21524303 54.88327026 27.20419312 C51.33082643 27.19397739 47.77837591 27.18939913 44.22592163 27.18435669 C37.25129347 27.17362068 30.27669974 27.15602449 23.30209351 27.13552856 C23.30209351 33.73552856 23.30209351 40.33552856 23.30209351 47.13552856 C26.03361694 47.123927 28.76514038 47.11232544 31.57943726 47.10037231 C34.2137948 47.09258214 36.84815107 47.08650516 39.48251343 47.08059692 C41.31878225 47.07555625 43.15504705 47.0687238 44.99130249 47.06008911 C47.62485752 47.04801184 50.25835967 47.04229775 52.89193726 47.03787231 C53.71797958 47.03271103 54.54402191 47.02754974 55.39509583 47.02223206 C57.36445718 47.02203652 59.33370964 47.07348705 61.30209351 47.13552856 C63.83519072 49.66862578 62.48764522 56.66547765 62.48959351 60.07302856 C62.5018396 61.19644653 62.51408569 62.3198645 62.52670288 63.47732544 C62.52863647 64.54918091 62.53057007 65.62103638 62.53256226 66.72537231 C62.53667114 67.71400269 62.54078003 68.70263306 62.54501343 69.72122192 C62.30209351 72.13552856 62.30209351 72.13552856 60.30209351 74.13552856 C57.50524554 74.31077911 54.80881271 74.36696045 52.01303101 74.33084106 C50.78539536 74.32659622 50.78539536 74.32659622 49.53295898 74.32226562 C46.91418958 74.31105388 44.29575987 74.28594785 41.67709351 74.26052856 C39.90366094 74.25050003 38.13022302 74.24137396 36.35678101 74.23318481 C32.00498175 74.21281122 27.6539187 74.1736653 23.30209351 74.13552856 C23.30209351 81.06552856 23.30209351 87.99552856 23.30209351 95.13552856 C25.97516602 95.12767334 25.97516602 95.12767334 28.70223999 95.11965942 C34.57756032 95.10356114 40.45287989 95.09205599 46.3282156 95.08371639 C49.89186772 95.07848861 53.45549608 95.07139287 57.01913452 95.06008911 C61.11215447 95.04718681 65.2051493 95.0422995 69.29818726 95.03787231 C71.2262748 95.03013039 71.2262748 95.03013039 73.1933136 95.02223206 C74.37446243 95.02215652 75.55561127 95.02208099 76.77255249 95.02200317 C78.34141457 95.01867226 78.34141457 95.01867226 79.94197083 95.01527405 C82.30209351 95.13552856 82.30209351 95.13552856 83.30209351 96.13552856 C83.40155803 97.90412049 83.43289568 99.67664307 83.43490601 101.44802856 C83.43619507 102.52310669 83.43748413 103.59818481 83.43881226 104.70584106 C83.43494507 105.83763794 83.43107788 106.96943481 83.42709351 108.13552856 C83.43096069 109.26732544 83.43482788 110.39912231 83.43881226 111.56521606 C83.43752319 112.64029419 83.43623413 113.71537231 83.43490601 114.82302856 C83.43377808 115.81689575 83.43265015 116.81076294 83.43148804 117.83474731 C83.30209351 120.13552856 83.30209351 120.13552856 82.30209351 121.13552856 C79.53270384 121.2307066 76.78832191 121.26107122 74.01864624 121.24905396 C72.71632553 121.24927299 72.71632553 121.24927299 71.38769531 121.24949646 C68.50366764 121.24879702 65.61970371 121.24100319 62.73568726 121.23318481 C60.74171484 121.23132074 58.74774196 121.22989679 56.75376892 121.22889709 C51.49463649 121.22507104 46.23553148 121.21524002 40.97640991 121.20419312 C35.61427176 121.19398087 30.2521292 121.18939988 24.88998413 121.18435669 C14.36067518 121.17361783 3.83138662 121.15654036 -6.69790649 121.13552856 C-6.72123588 105.50674496 -6.73888586 89.87796603 -6.74971867 74.24916935 C-6.75488154 66.99294008 -6.76192407 59.73672161 -6.77334595 52.48049927 C-6.78329305 46.15819 -6.78975998 39.83588855 -6.79199499 33.51357168 C-6.79330205 30.16396107 -6.79638762 26.81437283 -6.80363655 23.46476936 C-6.8108427 19.73139211 -6.81189762 15.99806198 -6.81143188 12.26467896 C-6.81502716 11.14618561 -6.81862244 10.02769226 -6.82232666 8.87530518 C-6.820952 7.86423203 -6.81957733 6.85315887 -6.81816101 5.81144714 C-6.8190828 4.92744767 -6.8200046 4.0434482 -6.82095432 3.13266087 C-6.55967264 -1.10808112 -3.55032054 0.0135219 0 0 Z " fill="#531362" transform="translate(731.6979064941406,22.864471435546875)"/>
<path d="M0 0 C1.2125219 0.00303635 1.2125219 0.00303635 2.44953918 0.00613403 C3.29663956 0.00438171 4.14373993 0.00262939 5.01651001 0.00082397 C7.83079547 -0.00359553 10.64501865 -0.00065621 13.45930481 0.00271606 C15.40604159 0.00204305 17.35277828 0.00107305 19.29951477 -0.00018311 C23.38517556 -0.00166021 27.47081452 0.00049489 31.55647278 0.00515747 C36.80601996 0.01085476 42.05551603 0.00757583 47.30506134 0.00158501 C51.32663868 -0.00202026 55.3482038 -0.00088218 59.36978149 0.0017128 C61.3059693 0.00238216 63.2421582 0.00155332 65.17834473 -0.00076675 C67.87945005 -0.00329272 70.5804714 0.00054652 73.28157043 0.00613403 C74.08991837 0.0041098 74.8982663 0.00208557 75.73110962 0 C81.25129233 0.02126609 81.25129233 0.02126609 82.36555481 1.13552856 C82.46515102 2.97711879 82.49635891 4.82249823 82.49836731 6.66677856 C82.49965637 7.78697388 82.50094543 8.90716919 82.50227356 10.06130981 C82.49840637 11.240802 82.49453918 12.42029419 82.49055481 13.63552856 C82.494422 14.81502075 82.49828918 15.99451294 82.50227356 17.20974731 C82.5009845 18.32994263 82.49969543 19.45013794 82.49836731 20.60427856 C82.49723938 21.64004028 82.49611145 22.675802 82.49494934 23.74295044 C82.36555481 26.13552856 82.36555481 26.13552856 81.36555481 27.13552856 C72.12555481 27.13552856 62.88555481 27.13552856 53.36555481 27.13552856 C53.36555481 57.82552856 53.36555481 88.51552856 53.36555481 120.13552856 C50.61200521 121.51230336 48.37715072 121.26522545 45.29914856 121.26834106 C44.09194153 121.26963013 42.8847345 121.27091919 41.64094543 121.27224731 C39.74118958 121.26644653 39.74118958 121.26644653 37.80305481 121.26052856 C36.53268372 121.26439575 35.26231262 121.26826294 33.95344543 121.27224731 C32.74752747 121.27095825 31.5416095 121.26966919 30.29914856 121.26834106 C29.18596252 121.26721313 28.07277649 121.26608521 26.92585754 121.2649231 C24.36555481 121.13552856 24.36555481 121.13552856 23.36555481 120.13552856 C23.27031576 117.24409705 23.24002454 114.37660792 23.25202942 111.4848938 C23.25188339 110.57766571 23.25173737 109.67043762 23.25158691 108.73571777 C23.2522864 105.72182872 23.26008046 102.70800064 23.26789856 99.69412231 C23.26976261 97.61046889 23.27118657 95.52681503 23.27218628 93.44316101 C23.27601247 87.9472941 23.28584361 82.45145343 23.29689026 76.95559692 C23.30710221 71.35216629 23.31168343 65.74873144 23.31672668 60.14529419 C23.32746579 49.14202742 23.34454342 38.13878017 23.36555481 27.13552856 C22.52782532 27.1460022 21.69009583 27.15647583 20.82698059 27.16726685 C17.72217317 27.20132875 14.61746089 27.22641767 11.51252747 27.24539185 C9.50644121 27.26040964 7.50044157 27.28581837 5.49446106 27.31130981 C4.23762512 27.31775513 2.98078918 27.32420044 1.68586731 27.33084106 C0.52329407 27.3413147 -0.63927917 27.35178833 -1.83708191 27.36257935 C-4.63444519 27.13552856 -4.63444519 27.13552856 -6.63444519 25.13552856 C-6.87736511 22.72122192 -6.87736511 22.72122192 -6.86491394 19.72537231 C-6.86298035 18.65351685 -6.86104675 17.58166138 -6.85905457 16.47732544 C-6.84680847 15.35390747 -6.83456238 14.2304895 -6.82194519 13.07302856 C-6.82130066 11.94574341 -6.82065613 10.81845825 -6.81999207 9.65701294 C-6.76780756 0.02607247 -6.76780756 0.02607247 0 0 Z " fill="#531463" transform="translate(400.6344451904297,23.864471435546875)"/>
<path d="M0 0 C1.25554688 -0.00128906 2.51109375 -0.00257812 3.8046875 -0.00390625 C4.46178711 -0.00181152 5.11888672 0.0002832 5.79589844 0.00244141 C7.80411335 0.00779016 9.81210459 0.00249559 11.8203125 -0.00390625 C13.07585938 -0.00261719 14.33140625 -0.00132813 15.625 0 C16.78644531 0.00112793 17.94789063 0.00225586 19.14453125 0.00341797 C21.8125 0.1328125 21.8125 0.1328125 22.8125 1.1328125 C22.90772418 3.99373068 22.93803326 6.83044871 22.92602539 9.69165039 C22.92617142 10.58912491 22.92631744 11.48659943 22.9264679 12.41127014 C22.92576842 15.39269384 22.91797441 18.3740559 22.91015625 21.35546875 C22.90829219 23.41670192 22.90686823 25.47793554 22.90586853 27.53916931 C22.90204237 32.9758526 22.89221126 38.41250936 22.88116455 43.84918213 C22.87095253 49.39228964 22.86637136 54.93540142 22.86132812 60.47851562 C22.85058908 71.36329293 22.83351149 82.24805052 22.8125 93.1328125 C23.37404282 93.13059189 23.93558563 93.12837128 24.5141449 93.12608337 C30.33730435 93.10402944 36.16045201 93.08890545 41.98364258 93.07788086 C44.15942873 93.07283942 46.33521147 93.06600643 48.51098633 93.05737305 C51.63103067 93.04529912 54.75103038 93.03958245 57.87109375 93.03515625 C58.85025253 93.02999496 59.82941132 93.02483368 60.83824158 93.01951599 C61.73909988 93.01944046 62.63995819 93.01936493 63.56811523 93.01928711 C64.36531479 93.0170665 65.16251434 93.01484589 65.98387146 93.01255798 C67.8125 93.1328125 67.8125 93.1328125 68.8125 94.1328125 C68.91221786 96.04739532 68.94330589 97.96563567 68.9453125 99.8828125 C68.94660156 101.048125 68.94789063 102.2134375 68.94921875 103.4140625 C68.94535156 104.64125 68.94148437 105.8684375 68.9375 107.1328125 C68.94136719 108.36 68.94523438 109.5871875 68.94921875 110.8515625 C68.94792969 112.016875 68.94664062 113.1821875 68.9453125 114.3828125 C68.94418457 115.46046875 68.94305664 116.538125 68.94189453 117.6484375 C68.8125 120.1328125 68.8125 120.1328125 67.8125 121.1328125 C65.51738504 121.23252405 63.21915451 121.26081116 60.921875 121.26220703 C60.20157104 121.26395935 59.48126709 121.26571167 58.73913574 121.26751709 C56.34689966 121.27193538 53.9547369 121.26899771 51.5625 121.265625 C49.90722642 121.26629805 48.25195293 121.26726808 46.59667969 121.26852417 C43.12303733 121.27000111 39.64942063 121.26784671 36.17578125 121.26318359 C31.71317502 121.2574863 27.25062892 121.26076533 22.7880249 121.26675606 C19.3686477 121.27036177 15.94928485 121.26922304 12.52990723 121.26662827 C10.88399244 121.26595902 9.23807637 121.26678732 7.59216309 121.26910782 C5.29578169 121.27163452 2.99949901 121.26779353 0.703125 121.26220703 C-1.26092285 121.26101364 -1.26092285 121.26101364 -3.26464844 121.25979614 C-6.1875 121.1328125 -6.1875 121.1328125 -7.1875 120.1328125 C-7.28551653 118.5916041 -7.31381846 117.04590882 -7.31448364 115.50158691 C-7.31730347 114.50037308 -7.32012329 113.49915924 -7.32302856 112.46760559 C-7.32100433 111.36003403 -7.3189801 110.25246246 -7.31689453 109.11132812 C-7.31864685 107.95211349 -7.32039917 106.79289886 -7.32220459 105.59855652 C-7.32662595 101.74537687 -7.32368411 97.89224267 -7.3203125 94.0390625 C-7.32098546 91.37487734 -7.3219537 88.71069359 -7.32321167 86.04650879 C-7.32503322 80.45434064 -7.32262745 74.86218568 -7.31787109 69.27001953 C-7.3124285 62.79608748 -7.31419117 56.32218692 -7.3196975 49.84825563 C-7.32422906 44.29921845 -7.32487897 38.75019076 -7.32225883 33.20115232 C-7.32069629 29.88285942 -7.32089174 26.56458464 -7.32379532 23.24629211 C-7.32632017 19.54893836 -7.32248361 15.85164603 -7.31689453 12.15429688 C-7.31891876 11.04672531 -7.32094299 9.93915375 -7.32302856 8.79801941 C-7.32020874 7.79680557 -7.31738892 6.79559174 -7.31448364 5.76403809 C-7.31410662 4.88871178 -7.31372959 4.01338547 -7.31334114 3.11153412 C-7.03832704 -1.21277786 -3.58379911 0.00348038 0 0 Z " fill="#521262" transform="translate(636.1875,23.8671875)"/>
<path d="M0 0 C4.27012271 -0.11547808 8.53472914 -0.21477422 12.80517578 -0.2746582 C14.25425674 -0.29964236 15.70321375 -0.33364269 17.15185547 -0.37719727 C31.65734162 -0.80206505 31.65734162 -0.80206505 37.71484375 3.72192383 C40.19353845 6.1869631 40.24358441 8.4411847 40.375 11.8125 C40.33560229 15.71287345 40.19574867 16.73154468 37.8125 20 C32.82565841 23.54619847 29.04897973 24.24722536 22.94921875 24.1953125 C22.29041214 24.1924826 21.63160553 24.18965271 20.95283508 24.18673706 C18.86419938 24.17560924 16.77600444 24.15051948 14.6875 24.125 C13.26498018 24.11496059 11.8424536 24.10583642 10.41992188 24.09765625 C6.94631127 24.07740196 3.47364461 24.03824196 0 24 C0 16.08 0 8.16 0 0 Z " fill="#FEFDFE" transform="translate(863,97)"/>
<path d="M0 0 C3.43970966 1.71985483 3.87628949 5.86145984 5.0390625 9.33984375 C5.32478119 10.17713516 5.61049988 11.01442657 5.90487671 11.87709045 C6.50843324 13.65051915 7.10840128 15.42517252 7.70507812 17.20092773 C8.62085371 19.92516565 9.54771624 22.64542873 10.4765625 25.36523438 C11.06055242 27.08571477 11.64390717 28.80641093 12.2265625 30.52734375 C12.50464752 31.34508774 12.78273254 32.16283173 13.06924438 33.00535583 C15 38.76694111 15 38.76694111 15 41 C5.76 41 -3.48 41 -13 41 C-11.6986313 35.14384083 -10.37203585 29.72173037 -8.3984375 24.12109375 C-8.0364476 23.07478539 -8.0364476 23.07478539 -7.66714478 22.00733948 C-6.90774274 19.81574587 -6.14151619 17.62661418 -5.375 15.4375 C-4.85370978 13.93700761 -4.33287262 12.43635774 -3.8125 10.93554688 C-2.54688478 7.28852729 -1.27515038 3.64369607 0 0 Z " fill="#F5F2F6" transform="translate(327,61)"/>
<path d="M0 0 C0.66 0 1.32 0 2 0 C3.85521526 5.51630495 5.70652973 11.0338974 7.55419922 16.55273438 C8.18365436 18.43102591 8.81418472 20.30895746 9.44580078 22.18652344 C10.35209774 24.88122744 11.25455348 27.57719117 12.15625 30.2734375 C12.44060913 31.11619232 12.72496826 31.95894714 13.01794434 32.82723999 C15 38.77225659 15 38.77225659 15 41 C5.76 41 -3.48 41 -13 41 C-11.6986313 35.14384083 -10.37203585 29.72173037 -8.3984375 24.12109375 C-8.0364476 23.07478539 -8.0364476 23.07478539 -7.66714478 22.00733948 C-6.90774274 19.81574587 -6.14151619 17.62661418 -5.375 15.4375 C-4.85370978 13.93700761 -4.33287262 12.43635774 -3.8125 10.93554688 C-2.54688478 7.28852729 -1.27515038 3.64369607 0 0 Z " fill="#F5F2F6" transform="translate(68,61)"/>
<path d="M0 0 C2.88019312 1.44009656 3.06820292 3.58709868 4.05618286 6.49946594 C4.30834564 7.26921249 4.56050842 8.03895905 4.8203125 8.83203125 C5.21559647 10.01426521 5.21559647 10.01426521 5.61886597 11.22038269 C6.17549104 12.89123886 6.72837581 14.56334495 7.27783203 16.23657227 C8.1191321 18.79465787 8.97463027 21.34766285 9.83203125 23.90039062 C10.37065141 25.52315239 10.90843922 27.14619071 11.4453125 28.76953125 C11.70152374 29.53320511 11.95773499 30.29687897 12.22171021 31.08369446 C13.36541219 34.59227065 14 37.27196916 14 41 C5.09 41 -3.82 41 -13 41 C-11.875 33.125 -11.875 33.125 -10.78491211 30.08422852 C-10.54473862 29.40405167 -10.30456512 28.72387482 -10.05711365 28.02308655 C-9.67112755 26.9617173 -9.67112755 26.9617173 -9.27734375 25.87890625 C-9.01240616 25.13414536 -8.74746857 24.38938446 -8.47450256 23.62205505 C-7.63500214 21.26661164 -6.78642081 18.91456247 -5.9375 16.5625 C-5.36332676 14.95659658 -4.78975301 13.35047869 -4.21679688 11.74414062 C-2.81811704 7.82691322 -1.41128906 3.91270133 0 0 Z " fill="#F6F2F6" transform="translate(550,61)"/>
<path d="M0 0 C3.87575108 -0.1081605 7.74846959 -0.1874032 11.625 -0.25 C13.26662109 -0.30027344 13.26662109 -0.30027344 14.94140625 -0.3515625 C21.25899979 -0.42813939 25.25623595 -0.37138667 30 4 C31.55024464 7.10048928 31.28992015 9.57894218 31 13 C29.20437595 15.75329021 27.94745078 17.52627461 25 19 C23.1136088 19.084915 21.22421485 19.107193 19.3359375 19.09765625 C18.21445312 19.09443359 17.09296875 19.09121094 15.9375 19.08789062 C14.761875 19.07951172 13.58625 19.07113281 12.375 19.0625 C11.19164062 19.05798828 10.00828125 19.05347656 8.7890625 19.04882812 C5.85935361 19.03701478 2.92967059 19.0190789 0 19 C0 12.73 0 6.46 0 0 Z " fill="#FBFAFB" transform="translate(863,49)"/>
</svg>
